<svg xmlns="http://www.w3.org/2000/svg" xmlns:xlink="http://www.w3.org/1999/xlink" contentStyleType="text/css" data-diagram-type="SEQUENCE" height="778px" preserveAspectRatio="none" style="width:1215px;height:778px;background:#FFFFFF;" version="1.1" viewBox="0 0 1215 778" width="1215px" zoomAndPan="magnify"><title>Common-Domain - HTTP Idempotency (Redis lock + SQL store)</title><defs/><g><text fill="#000000" font-family="'Helvetica'" font-size="14" font-weight="bold" lengthAdjust="spacing" textLength="421.9961" x="397.6077" y="25.7803">Common-Domain - HTTP Idempotency (Redis lock + SQL store)</text><rect fill="none" height="430.2578" style="stroke:#000000;stroke-width:1.5;" width="1198.2114" x="10" y="250.7305"/><rect fill="none" height="266.75" style="stroke:#000000;stroke-width:1.5;" width="1178.2114" x="20" y="407.2383"/><g><title>Client</title><rect fill="#000000" fill-opacity="0.00000" height="581.5" width="8" x="48.7524" y="116.4883"/><line style="stroke:#181818;stroke-width:0.5;stroke-dasharray:5,5;" x1="52" x2="52" y1="116.4883" y2="697.9883"/></g><g><title>API Controller</title><rect fill="#000000" fill-opacity="0.00000" height="581.5" width="8" x="330.2778" y="116.4883"/><line style="stroke:#181818;stroke-width:0.5;stroke-dasharray:5,5;" x1="334.2671" x2="334.2671" y1="116.4883" y2="697.9883"/></g><g><title>IdempotencyService</title><rect fill="#000000" fill-opacity="0.00000" height="581.5" width="8" x="615.9038" y="116.4883"/><line style="stroke:#181818;stroke-width:0.5;stroke-dasharray:5,5;" x1="619.5698" x2="619.5698" y1="116.4883" y2="697.9883"/></g><g><title>Azure Cache for Redis</title><rect fill="#000000" fill-opacity="0.00000" height="581.5" width="8" x="789.8682" y="116.4883"/><line style="stroke:#181818;stroke-width:0.5;stroke-dasharray:5,5;" x1="793.6729" x2="793.6729" y1="116.4883" y2="697.9883"/></g><g><title>Azure SQL .Idempotency Store.</title><rect fill="#000000" fill-opacity="0.00000" height="581.5" width="8" x="995.0117" y="116.4883"/><line style="stroke:#181818;stroke-width:0.5;stroke-dasharray:5,5;" x1="998.8032" x2="998.8032" y1="116.4883" y2="697.9883"/></g><g><title>UseCase</title><rect fill="#000000" fill-opacity="0.00000" height="581.5" width="8" x="1148.7158" y="116.4883"/><line style="stroke:#181818;stroke-width:0.5;stroke-dasharray:5,5;" x1="1152.2202" x2="1152.2202" y1="116.4883" y2="697.9883"/></g><g class="participant participant-head" data-participant="Client"><text fill="#000000" font-family="sans-serif" font-size="14" lengthAdjust="spacing" textLength="39.5049" x="30" y="113.5352">Client</text><ellipse cx="52.7524" cy="48.5" fill="#E2E2F0" rx="8" ry="8" style="stroke:#181818;stroke-width:0.5;"/><path d="M52.7524,56.5 L52.7524,83.5 M39.7524,64.5 L65.7524,64.5 M52.7524,83.5 L39.7524,98.5 M52.7524,83.5 L65.7524,98.5" fill="none" style="stroke:#181818;stroke-width:0.5;"/></g><g class="participant participant-tail" data-participant="Client"><text fill="#000000" font-family="sans-serif" font-size="14" lengthAdjust="spacing" textLength="39.5049" x="30" y="710.5234">Client</text><ellipse cx="52.7524" cy="721.9766" fill="#E2E2F0" rx="8" ry="8" style="stroke:#181818;stroke-width:0.5;"/><path d="M52.7524,729.9766 L52.7524,756.9766 M39.7524,737.9766 L65.7524,737.9766 M52.7524,756.9766 L39.7524,771.9766 M52.7524,756.9766 L65.7524,771.9766" fill="none" style="stroke:#181818;stroke-width:0.5;"/></g><g class="participant participant-head" data-participant="Controller"><rect fill="#E2E2F0" height="30.4883" rx="2.5" ry="2.5" style="stroke:#181818;stroke-width:0.5;" width="108.0215" x="280.2671" y="85"/><text fill="#000000" font-family="sans-serif" font-size="14" lengthAdjust="spacing" textLength="94.0215" x="287.2671" y="105.5352">API Controller</text></g><g class="participant participant-tail" data-participant="Controller"><rect fill="#E2E2F0" height="30.4883" rx="2.5" ry="2.5" style="stroke:#181818;stroke-width:0.5;" width="108.0215" x="280.2671" y="696.9883"/><text fill="#000000" font-family="sans-serif" font-size="14" lengthAdjust="spacing" textLength="94.0215" x="287.2671" y="717.5234">API Controller</text></g><g class="participant participant-head" data-participant="Idem"><rect fill="#E2E2F0" height="30.4883" rx="2.5" ry="2.5" style="stroke:#181818;stroke-width:0.5;" width="148.668" x="545.5698" y="85"/><text fill="#000000" font-family="sans-serif" font-size="14" lengthAdjust="spacing" textLength="134.668" x="552.5698" y="105.5352">IdempotencyService</text></g><g class="participant participant-tail" data-participant="Idem"><rect fill="#E2E2F0" height="30.4883" rx="2.5" ry="2.5" style="stroke:#181818;stroke-width:0.5;" width="148.668" x="545.5698" y="696.9883"/><text fill="#000000" font-family="sans-serif" font-size="14" lengthAdjust="spacing" textLength="134.668" x="552.5698" y="717.5234">IdempotencyService</text></g><g class="participant participant-head" data-participant="Redis"><path d="M713.6729,90 L874.0635,90 C879.0635,90 879.0635,103.2441 879.0635,103.2441 C879.0635,103.2441 879.0635,116.4883 874.0635,116.4883 L713.6729,116.4883 C708.6729,116.4883 708.6729,103.2441 708.6729,103.2441 C708.6729,103.2441 708.6729,90 713.6729,90" fill="#E2E2F0" style="stroke:#181818;stroke-width:0.5;"/><path d="M874.0635,90 C869.0635,90 869.0635,103.2441 869.0635,103.2441 C869.0635,116.4883 874.0635,116.4883 874.0635,116.4883" fill="none" style="stroke:#181818;stroke-width:0.5;"/><text fill="#000000" font-family="sans-serif" font-size="14" lengthAdjust="spacing" textLength="150.3906" x="713.6729" y="108.5352">Azure Cache for Redis</text></g><g class="participant participant-tail" data-participant="Redis"><path d="M713.6729,696.9883 L874.0635,696.9883 C879.0635,696.9883 879.0635,710.2324 879.0635,710.2324 C879.0635,710.2324 879.0635,723.4766 874.0635,723.4766 L713.6729,723.4766 C708.6729,723.4766 708.6729,710.2324 708.6729,710.2324 C708.6729,710.2324 708.6729,696.9883 713.6729,696.9883" fill="#E2E2F0" style="stroke:#181818;stroke-width:0.5;"/><path d="M874.0635,696.9883 C869.0635,696.9883 869.0635,710.2324 869.0635,710.2324 C869.0635,723.4766 874.0635,723.4766 874.0635,723.4766" fill="none" style="stroke:#181818;stroke-width:0.5;"/><text fill="#000000" font-family="sans-serif" font-size="14" lengthAdjust="spacing" textLength="150.3906" x="713.6729" y="715.5234">Azure Cache for Redis</text></g><g class="participant participant-head" data-participant="SQL"><text fill="#000000" font-family="sans-serif" font-size="14" lengthAdjust="spacing" textLength="210.417" x="890.8032" y="113.5352">Azure SQL (Idempotency Store)</text><path d="M981.0117,64 C981.0117,54 999.0117,54 999.0117,54 C999.0117,54 1017.0117,54 1017.0117,64 L1017.0117,90 C1017.0117,100 999.0117,100 999.0117,100 C999.0117,100 981.0117,100 981.0117,90 L981.0117,64" fill="#E2E2F0" style="stroke:#181818;stroke-width:0.5;"/><path d="M981.0117,64 C981.0117,74 999.0117,74 999.0117,74 C999.0117,74 1017.0117,74 1017.0117,64" fill="none" style="stroke:#181818;stroke-width:0.5;"/></g><g class="participant participant-tail" data-participant="SQL"><text fill="#000000" font-family="sans-serif" font-size="14" lengthAdjust="spacing" textLength="210.417" x="890.8032" y="710.5234">Azure SQL (Idempotency Store)</text><path d="M981.0117,723.4766 C981.0117,713.4766 999.0117,713.4766 999.0117,713.4766 C999.0117,713.4766 1017.0117,713.4766 1017.0117,723.4766 L1017.0117,749.4766 C1017.0117,759.4766 999.0117,759.4766 999.0117,759.4766 C999.0117,759.4766 981.0117,759.4766 981.0117,749.4766 L981.0117,723.4766" fill="#E2E2F0" style="stroke:#181818;stroke-width:0.5;"/><path d="M981.0117,723.4766 C981.0117,733.4766 999.0117,733.4766 999.0117,733.4766 C999.0117,733.4766 1017.0117,733.4766 1017.0117,723.4766" fill="none" style="stroke:#181818;stroke-width:0.5;"/></g><g class="participant participant-head" data-participant="UseCase"><rect fill="#E2E2F0" height="30.4883" rx="2.5" ry="2.5" style="stroke:#181818;stroke-width:0.5;" width="70.9912" x="1117.2202" y="85"/><text fill="#000000" font-family="sans-serif" font-size="14" lengthAdjust="spacing" textLength="56.9912" x="1124.2202" y="105.5352">UseCase</text></g><g class="participant participant-tail" data-participant="UseCase"><rect fill="#E2E2F0" height="30.4883" rx="2.5" ry="2.5" style="stroke:#181818;stroke-width:0.5;" width="70.9912" x="1117.2202" y="696.9883"/><text fill="#000000" font-family="sans-serif" font-size="14" lengthAdjust="spacing" textLength="56.9912" x="1124.2202" y="717.5234">UseCase</text></g><g class="message" data-participant-1="Client" data-participant-2="Controller"><polygon fill="#181818" points="322.2778,143.7988,332.2778,147.7988,322.2778,151.7988,326.2778,147.7988" style="stroke:#181818;stroke-width:1;"/><line style="stroke:#181818;stroke-width:1;" x1="52.7524" x2="328.2778" y1="147.7988" y2="147.7988"/><text fill="#000000" font-family="sans-serif" font-size="13" font-weight="bold" lengthAdjust="spacing" textLength="8.5757" x="59.7524" y="143.0566">1</text><text fill="#000000" font-family="sans-serif" font-size="13" lengthAdjust="spacing" textLength="244.9497" x="72.3281" y="143.0566">POST /payments (Idempotency-Key: K)</text></g><g class="message" data-participant-1="Controller" data-participant-2="Idem"><polygon fill="#181818" points="607.9038,173.1094,617.9038,177.1094,607.9038,181.1094,611.9038,177.1094" style="stroke:#181818;stroke-width:1;"/><line style="stroke:#181818;stroke-width:1;" x1="334.2778" x2="613.9038" y1="177.1094" y2="177.1094"/><text fill="#000000" font-family="sans-serif" font-size="13" font-weight="bold" lengthAdjust="spacing" textLength="8.5757" x="341.2778" y="172.3672">2</text><text fill="#000000" font-family="sans-serif" font-size="13" lengthAdjust="spacing" textLength="203.7217" x="353.8535" y="172.3672">getStoredResult(K, requestHash)</text></g><g class="message" data-participant-1="Idem" data-participant-2="SQL"><polygon fill="#181818" points="987.0117,202.4199,997.0117,206.4199,987.0117,210.4199,991.0117,206.4199" style="stroke:#181818;stroke-width:1;"/><line style="stroke:#181818;stroke-width:1;" x1="619.9038" x2="993.0117" y1="206.4199" y2="206.4199"/><text fill="#000000" font-family="sans-serif" font-size="13" font-weight="bold" lengthAdjust="spacing" textLength="8.5757" x="626.9038" y="201.6777">3</text><text fill="#000000" font-family="sans-serif" font-size="13" lengthAdjust="spacing" textLength="292.4048" x="639.4795" y="201.6777">SELECT result WHERE key=K AND requestHash</text></g><g class="message" data-participant-1="SQL" data-participant-2="Idem"><polygon fill="#181818" points="630.9038,231.7305,620.9038,235.7305,630.9038,239.7305,626.9038,235.7305" style="stroke:#181818;stroke-width:1;"/><line style="stroke:#181818;stroke-width:1;stroke-dasharray:2,2;" x1="624.9038" x2="998.0117" y1="235.7305" y2="235.7305"/><text fill="#000000" font-family="sans-serif" font-size="13" font-weight="bold" lengthAdjust="spacing" textLength="8.5757" x="636.9038" y="230.9883">4</text><text fill="#000000" font-family="sans-serif" font-size="13" lengthAdjust="spacing" textLength="52.6538" x="649.4795" y="230.9883">hit/miss</text></g><path d="M10,250.7305 L72.1387,250.7305 L72.1387,258.041 L62.1387,268.041 L10,268.041 L10,250.7305" fill="#EEEEEE" style="stroke:#000000;stroke-width:1.5;"/><rect fill="none" height="430.2578" style="stroke:#000000;stroke-width:1.5;" width="1198.2114" x="10" y="250.7305"/><text fill="#000000" font-family="sans-serif" font-size="13" font-weight="bold" lengthAdjust="spacing" textLength="17.1387" x="25" y="264.2988">alt</text><text fill="#000000" font-family="sans-serif" font-size="11" font-weight="bold" lengthAdjust="spacing" textLength="83.8374" x="87.1387" y="263.3652">[cached result]</text><g class="message" data-participant-1="Idem" data-participant-2="Controller"><polygon fill="#181818" points="345.2778,285.3516,335.2778,289.3516,345.2778,293.3516,341.2778,289.3516" style="stroke:#181818;stroke-width:1;"/><line style="stroke:#181818;stroke-width:1;stroke-dasharray:2,2;" x1="339.2778" x2="618.9038" y1="289.3516" y2="289.3516"/><text fill="#000000" font-family="sans-serif" font-size="13" font-weight="bold" lengthAdjust="spacing" textLength="8.5757" x="351.2778" y="284.6094">5</text><text fill="#000000" font-family="sans-serif" font-size="13" lengthAdjust="spacing" textLength="101.626" x="363.8535" y="284.6094">stored response</text></g><g class="message" data-participant-1="Controller" data-participant-2="Client"><polygon fill="#181818" points="63.7524,314.6621,53.7524,318.6621,63.7524,322.6621,59.7524,318.6621" style="stroke:#181818;stroke-width:1;"/><line style="stroke:#181818;stroke-width:1;stroke-dasharray:2,2;" x1="57.7524" x2="333.2778" y1="318.6621" y2="318.6621"/><text fill="#000000" font-family="sans-serif" font-size="13" font-weight="bold" lengthAdjust="spacing" textLength="8.5757" x="69.7524" y="313.9199">6</text><text fill="#000000" font-family="sans-serif" font-size="13" lengthAdjust="spacing" textLength="122.605" x="82.3281" y="313.9199">200/201 (replayed)</text></g><line style="stroke:#000000;stroke-width:1;stroke-dasharray:2,2;" x1="10" x2="1208.2114" y1="327.6621" y2="327.6621"/><text fill="#000000" font-family="sans-serif" font-size="11" font-weight="bold" lengthAdjust="spacing" textLength="69.6201" x="15" y="338.2969">[not cached]</text><g class="message" data-participant-1="Idem" data-participant-2="Redis"><polygon fill="#181818" points="781.8682,358.9277,791.8682,362.9277,781.8682,366.9277,785.8682,362.9277" style="stroke:#181818;stroke-width:1;"/><line style="stroke:#181818;stroke-width:1;" x1="619.9038" x2="787.8682" y1="362.9277" y2="362.9277"/><text fill="#000000" font-family="sans-serif" font-size="13" font-weight="bold" lengthAdjust="spacing" textLength="8.5757" x="626.9038" y="358.1855">7</text><text fill="#000000" font-family="sans-serif" font-size="13" lengthAdjust="spacing" textLength="137.3887" x="639.4795" y="358.1855">SETNX lock:K TTL 60s</text></g><g class="message" data-participant-1="Redis" data-participant-2="Idem"><polygon fill="#181818" points="630.9038,388.2383,620.9038,392.2383,630.9038,396.2383,626.9038,392.2383" style="stroke:#181818;stroke-width:1;"/><line style="stroke:#181818;stroke-width:1;stroke-dasharray:2,2;" x1="624.9038" x2="792.8682" y1="392.2383" y2="392.2383"/><text fill="#000000" font-family="sans-serif" font-size="13" font-weight="bold" lengthAdjust="spacing" textLength="8.5757" x="636.9038" y="387.4961">8</text><text fill="#000000" font-family="sans-serif" font-size="13" lengthAdjust="spacing" textLength="43.3164" x="649.4795" y="387.4961">ok/not</text></g><path d="M20,407.2383 L82.1387,407.2383 L82.1387,414.5488 L72.1387,424.5488 L20,424.5488 L20,407.2383" fill="#EEEEEE" style="stroke:#000000;stroke-width:1.5;"/><rect fill="none" height="266.75" style="stroke:#000000;stroke-width:1.5;" width="1178.2114" x="20" y="407.2383"/><text fill="#000000" font-family="sans-serif" font-size="13" font-weight="bold" lengthAdjust="spacing" textLength="17.1387" x="35" y="420.8066">alt</text><text fill="#000000" font-family="sans-serif" font-size="11" font-weight="bold" lengthAdjust="spacing" textLength="84.3423" x="97.1387" y="419.873">[acquired lock]</text><g class="message" data-participant-1="Controller" data-participant-2="UseCase"><polygon fill="#181818" points="1140.7158,441.8594,1150.7158,445.8594,1140.7158,449.8594,1144.7158,445.8594" style="stroke:#181818;stroke-width:1;"/><line style="stroke:#181818;stroke-width:1;" x1="334.2778" x2="1146.7158" y1="445.8594" y2="445.8594"/><text fill="#000000" font-family="sans-serif" font-size="13" font-weight="bold" lengthAdjust="spacing" textLength="8.5757" x="341.2778" y="441.1172">9</text><text fill="#000000" font-family="sans-serif" font-size="13" lengthAdjust="spacing" textLength="120.0913" x="353.8535" y="441.1172">execute(command)</text></g><g class="message" data-participant-1="UseCase" data-participant-2="Controller"><polygon fill="#181818" points="345.2778,471.1699,335.2778,475.1699,345.2778,479.1699,341.2778,475.1699" style="stroke:#181818;stroke-width:1;"/><line style="stroke:#181818;stroke-width:1;stroke-dasharray:2,2;" x1="339.2778" x2="1151.7158" y1="475.1699" y2="475.1699"/><text fill="#000000" font-family="sans-serif" font-size="13" font-weight="bold" lengthAdjust="spacing" textLength="17.1514" x="351.2778" y="470.4277">10</text><text fill="#000000" font-family="sans-serif" font-size="13" lengthAdjust="spacing" textLength="35.877" x="372.4292" y="470.4277">result</text></g><g class="message" data-participant-1="Controller" data-participant-2="Idem"><polygon fill="#181818" points="607.9038,500.4805,617.9038,504.4805,607.9038,508.4805,611.9038,504.4805" style="stroke:#181818;stroke-width:1;"/><line style="stroke:#181818;stroke-width:1;" x1="334.2778" x2="613.9038" y1="504.4805" y2="504.4805"/><text fill="#000000" font-family="sans-serif" font-size="13" font-weight="bold" lengthAdjust="spacing" textLength="17.1514" x="341.2778" y="499.7383">11</text><text fill="#000000" font-family="sans-serif" font-size="13" lengthAdjust="spacing" textLength="240.4746" x="362.4292" y="499.7383">storeResult(K, requestHash, response)</text></g><g class="message" data-participant-1="Idem" data-participant-2="SQL"><polygon fill="#181818" points="987.0117,529.791,997.0117,533.791,987.0117,537.791,991.0117,533.791" style="stroke:#181818;stroke-width:1;"/><line style="stroke:#181818;stroke-width:1;" x1="619.9038" x2="993.0117" y1="533.791" y2="533.791"/><text fill="#000000" font-family="sans-serif" font-size="13" font-weight="bold" lengthAdjust="spacing" textLength="17.1514" x="626.9038" y="529.0488">12</text><text fill="#000000" font-family="sans-serif" font-size="13" lengthAdjust="spacing" textLength="333.9565" x="648.0552" y="529.0488">UPSERT(key, requestHash, response, status, savedAt)</text></g><g class="message" data-participant-1="SQL" data-participant-2="Idem"><polygon fill="#181818" points="630.9038,559.1016,620.9038,563.1016,630.9038,567.1016,626.9038,563.1016" style="stroke:#181818;stroke-width:1;"/><line style="stroke:#181818;stroke-width:1;stroke-dasharray:2,2;" x1="624.9038" x2="998.0117" y1="563.1016" y2="563.1016"/><text fill="#000000" font-family="sans-serif" font-size="13" font-weight="bold" lengthAdjust="spacing" textLength="17.1514" x="636.9038" y="558.3594">13</text><text fill="#000000" font-family="sans-serif" font-size="13" lengthAdjust="spacing" textLength="15.5835" x="658.0552" y="558.3594">ok</text></g><g class="message" data-participant-1="Idem" data-participant-2="Redis"><polygon fill="#181818" points="781.8682,588.4121,791.8682,592.4121,781.8682,596.4121,785.8682,592.4121" style="stroke:#181818;stroke-width:1;"/><line style="stroke:#181818;stroke-width:1;" x1="619.9038" x2="787.8682" y1="592.4121" y2="592.4121"/><text fill="#000000" font-family="sans-serif" font-size="13" font-weight="bold" lengthAdjust="spacing" textLength="17.1514" x="626.9038" y="587.6699">14</text><text fill="#000000" font-family="sans-serif" font-size="13" lengthAdjust="spacing" textLength="66.4282" x="648.0552" y="587.6699">DEL lock:K</text></g><g class="message" data-participant-1="Controller" data-participant-2="Client"><polygon fill="#181818" points="63.7524,617.7227,53.7524,621.7227,63.7524,625.7227,59.7524,621.7227" style="stroke:#181818;stroke-width:1;"/><line style="stroke:#181818;stroke-width:1;stroke-dasharray:2,2;" x1="57.7524" x2="333.2778" y1="621.7227" y2="621.7227"/><text fill="#000000" font-family="sans-serif" font-size="13" font-weight="bold" lengthAdjust="spacing" textLength="17.1514" x="69.7524" y="616.9805">15</text><text fill="#000000" font-family="sans-serif" font-size="13" lengthAdjust="spacing" textLength="24.6606" x="90.9038" y="616.9805">201</text></g><line style="stroke:#000000;stroke-width:1;stroke-dasharray:2,2;" x1="20" x2="1198.2114" y1="630.7227" y2="630.7227"/><text fill="#000000" font-family="sans-serif" font-size="11" font-weight="bold" lengthAdjust="spacing" textLength="62.3423" x="25" y="641.3574">[lock busy]</text><g class="message" data-participant-1="Controller" data-participant-2="Client"><polygon fill="#181818" points="63.7524,661.9883,53.7524,665.9883,63.7524,669.9883,59.7524,665.9883" style="stroke:#181818;stroke-width:1;"/><line style="stroke:#181818;stroke-width:1;stroke-dasharray:2,2;" x1="57.7524" x2="333.2778" y1="665.9883" y2="665.9883"/><text fill="#000000" font-family="sans-serif" font-size="13" font-weight="bold" lengthAdjust="spacing" textLength="17.1514" x="69.7524" y="661.2461">16</text><text fill="#000000" font-family="sans-serif" font-size="13" lengthAdjust="spacing" textLength="201.6904" x="90.9038" y="661.2461">409 Conflict or 202 In-Progress</text></g><!--SRC=[XLJVZvf047xVlsBY4wOIETCqASarCKgZqLWhNDhN5UPq8-nox69A__hEheH3g-q30PblvlinY_eaPCahNi2hacR32uJ10lCp6f7o0TDTsGYJuzT_Ot8yeCp-0vBAt9_Z662cYa99VwuABYJui4YIBImpB4hgasa3tWupeI5NwGa-GFnz3Tge2eUCrqR9kjXZnNXAhs2M2vI64IqHY99B0uFfTaaKqbGgpx4Q0DUzdzVG7ccCrLcawE3sDNkhiIRrqzzrHP9vUaJAhm8dpQ7S4ykuuNkkEwHLw_NDn4wwww3QDV-BnXdrkcBxpDZ54_XVUh93s7wB4nYNl2cegAye_1Ks8Qo6x1rlkoqYX0CQfo3ReQvpuwr6K25vqsR1zN78BCgYILi8SRIEPWa1B1H-BA9T12TidbSmtSpxVSpQz3kIep3ZGcZDEBMbDgki7TBElp7ZrkaWfPBakI_SGbq28Ko2O3m9di2hiCnvWzcGOKvHq_bgMJhvRXdMGBBvwGvEk88aMSEdGBFBQNfNgqvZck2qylIj5bQARRd9hrr82FWBqzgWbzAvvP94j9M_RBMMxwt1ERwxWb4NmyqoNhPnj4iyoly1VaHJkQartVaPiwaPtgn5dMxpcKVhDft7cJzTGdPVtxxMpIFan-2pTV-QYzG0VHcJO09BwMyhTI25cj7_XBt-0000]--></g></svg>